<svg xmlns="http://www.w3.org/2000/svg" xmlns:xlink="http://www.w3.org/1999/xlink" viewBox="0 0 925.4 1059.7"><style><![CDATA[.G{stroke-linecap:round}.H{fill:none}.I{stroke-linejoin:round}.J{stroke-width:7}.K{stroke:#e7eaf3}.L{stroke:#1e2022}]]></style><path d="M485 983.3v-478m92.7 455.4l-66.2 88.1m162.1-214.9l-73.1 97.2" class="G H I J K"/><path d="M319.3 981.8l-12.7 75.6-120.6-19.2 95.4-18.5 8-42.9m293.9-66.7l43.6 63-99.8 70.4 55.4-79.8-24.1-36.3" stroke-width="2.5" class="L G H I"/><path d="M418.6 736.7c-1.4 7.3 120.3 201.2 130 201.2 12.5 0 41.2-21.3 41.2-27.3S535 764.9 535 741.3s-104.4-67-116.4-4.6z" fill="#377dff"/><path d="M397 1037.3v-532" class="G H I J K"/><g fill="#e7eaf3"><path d="M767.218 858.284l125.4-532.006 32.703 7.708-125.4 532.006z"/><path d="M493.826 794.048l7.708-32.703 306.006 72.123-7.708 32.703z"/></g><g stroke-width="2.5" class="G H I L"><path d="M617.8,475.3C636,393.1,676,298.6,749.2,269.9"/><path d="M817.5 265.3c30.5 12.2 43.5 49.9 43.5 78 0 157-32.3 314.1-51 326-33 21-187.1-29-201-62-4.1-9.8-4.9-37.4-1-73.1m141.2-264.3c1-12.6 1.1-25.3.5-38"/><path d="M806 185.3c-1 6 1 57 15 89-3.1 4.9-21.6 13.6-40.5 15.4m4.9-105.9c-8.2 29.7-26.6 50.4-47.9 50.4-29 0-52.5-38.3-52.5-85.5 0-7.5.6-15.1 1.8-22.5m-19.3-2.1c-38.6-8.3-44.5-38.9-44.5-50.9 0-37 33-38 47-46 15.9-9.1 28-26 51-26 22 0 38.5 21 52 28 23 12 78 10 78 52 0 30-11 38-11 52 0 8 2 11 2 27 0 18.3-16 28.3-27.3 30.5m-33.2-51.4c10.2 0 18.5 8.3 18.5 18.5s-8.3 18.5-18.5 18.5m-52 281c-5.6 13.4-14 37-15.5 59-15-6-159-71-186-71-53 0-67 17-67 25 0 15 65 13 74 18s187 121 209 121c19.9 0 66.7-76.7 77-108.5"/><path d="M846.3 469.8c-5.8 18.5-12.9 31.2-19.3 31.5-22 1-102-41-108-54-4-8.6 26-68.5 60.7-101.7"/></g><path d="M0 492.3h510v20H0z" fill="#e7eaf3"/><path d="M31 1037.3v-532m92 478v-478" class="G H I J K"/><g fill="#1e2022"><path d="M374 481.3h115v11H374z"/><path d="M320.077 340.333l3.108-1.1L375.85 486.71l-3.108 1.1z"/></g><path d="M747.3 846.8l69.7 209.4M565.2 808.3l-160.4 213.3m237.4-193.7l69.8 209.4" class="G H I J K"/><use xlink:href="#B" fill="#377dff"/><use xlink:href="#B" opacity=".05" fill="#fff"/><circle cx="710.7" cy="147.4" r="3.8"/><path stroke-width="4.41" stroke-miterlimit="10" d="M722.5,198.6c-4.4,1.9-9.2,3.4-13.9,4.1" class="G H L"/><defs ><path id="B" d="M802.1 672.5C757.5 683.8 622 638.1 609 607.3c-1-2.5-1.6-5.2-2-7.8-58.9-15.2-122.3-26.3-177.5-26.3-90.8 0-165 397.4-165 404.3 7.3 2.1 56.5 9 56.5 9l126.8-268.9c12.4 8.6 168.9 89.9 229.3 89.9 66.2 0 128.3-68 128.3-130.6-.1-1.2-1.2-2.6-3.3-4.4z"/></defs></svg>