<?xml version="1.0" encoding="utf-8"?>
<!-- Svg Vector Icons : http://www.onlinewebfonts.com/icon -->
<!DOCTYPE svg PUBLIC "-//W3C//DTD SVG 1.1//EN" "http://www.w3.org/Graphics/SVG/1.1/DTD/svg11.dtd">
<svg version="1.1" xmlns="http://www.w3.org/2000/svg" xmlns:xlink="http://www.w3.org/1999/xlink" x="0px" y="0px" viewBox="0 0 256 256" enable-background="new 0 0 256 256" xml:space="preserve">
<metadata> Svg Vector Icons : http://www.onlinewebfonts.com/icon </metadata>
<g><g><g><path fill="#000000" d="M126.3,11.2c-0.3,0.7-10.4,26.2-22.6,56.6c-12.2,30.4-22.2,55.7-22.4,56c-0.2,0.6,4.5,0.7,22.4,0.7c21.4,0,22.7,0.1,22.3,1c-0.2,0.6-6.4,14.3-13.7,30.5L99,185.5l-7.6-7.1c-4.1-4-7.7-7.2-7.9-7.3c-0.5-0.1-5.5,73.9-5.1,74.9c0.2,0.4,13.7-11.2,30-25.8l29.8-26.4l-3.5-0.3c-2-0.2-7.1-0.6-11.3-0.8c-5.4-0.3-7.7-0.6-7.6-1.1c0.2-0.3,13.2-19.8,28.9-43.3l28.6-42.6l-24.6-0.3l-24.6-0.3l26.8-47.4c14.7-26,26.8-47.4,26.8-47.5S166.2,10,152.3,10h-25.4L126.3,11.2z"/></g></g></g>
</svg>